<svg xmlns="http://www.w3.org/2000/svg"  viewBox="0 0 24 24" width="24px" height="24px"><path fill="#FF9800" d="M14.075,24v-3.188c3.779-0.207,6.305-1.167,6.642-4.756c0.264-2.88-1.084-4.165-3.223-4.682l0.001-0.002	c1.289-0.665,2.109-1.846,1.919-3.811c-0.249-2.688-2.438-3.589-5.339-3.84V0h-2.256v3.619c-0.586,0-1.187,0.015-1.787,0.03V0.001	H7.777v3.721c-0.829,0.025-1.795,0.013-4.527,0v2.422c1.781-0.032,2.715-0.147,2.93,1.004V17.34	c-0.135,0.914-0.861,0.781-2.476,0.753L3.25,20.796c4.113,0,4.527,0.015,4.527,0.015v3.188h2.256v-3.143	c0.614,0.015,1.216,0.015,1.787,0.015V24H14.075L14.075,24z M10.076,6.306c1.274,0,5.259-0.399,5.259,2.275	c0,2.555-3.984,2.26-5.259,2.26V6.306L10.076,6.306z M10.076,18.107v-4.992c1.523,0,6.188-0.428,6.188,2.496	C16.265,18.431,11.6,18.107,10.076,18.107L10.076,18.107z"/><path fill="#DEDEDE" d="M10.812,13.101c-0.287,0.006-0.538,0.013-0.736,0.013v4.992c0.198,0,0.449,0.005,0.736,0.009V13.101	L10.812,13.101z"/><path fill="#DEDEDE" d="M10.812,6.29c-0.292,0.006-0.545,0.015-0.736,0.015v4.534c0.192,0,0.445,0.007,0.736,0.009V6.29L10.812,6.29	z"/><path fill="#DE8400" d="M10.032,0.001H7.777v3.721C7.422,3.733,7.043,3.737,6.513,3.737c-0.712,0-1.698-0.007-3.263-0.015v2.422	c0.404-0.007,0.765-0.019,1.083-0.019c1.085,0,1.681,0.133,1.847,1.023V17.34c-0.099,0.665-0.51,0.776-1.349,0.776	c-0.314,0-0.687-0.016-1.127-0.023L3.25,20.796c4.113,0,4.527,0.015,4.527,0.015v3.188h2.256v-3.143	c0.263,0.007,0.523,0.01,0.78,0.012v-2.753c-0.287-0.003-0.538-0.009-0.736-0.009v-4.992c0.198,0,0.449-0.007,0.736-0.013V10.85	c-0.292-0.003-0.545-0.009-0.736-0.009V6.306c0.192,0,0.445-0.009,0.736-0.015V3.63c-0.259,0.005-0.52,0.012-0.78,0.018V0.001	L10.032,0.001z"/></svg>